<svg xmlns="http://www.w3.org/2000/svg" viewBox="0 0 512 512">
<defs><linearGradient id="b" x2="1" y2="1"><stop stop-color="#502b22"/><stop offset="1" stop-color="#1a1720"/></linearGradient><linearGradient id="f" x2="0" y2="1"><stop stop-color="#ffe27c"/><stop offset=".55" stop-color="#ff914f"/><stop offset="1" stop-color="#ee5363"/></linearGradient></defs>
<rect width="512" height="512" rx="28" fill="url(#b)"/><circle cx="256" cy="256" r="176" fill="none" stroke="#ffb264" stroke-width="1" opacity=".2"/><circle cx="256" cy="256" r="142" fill="none" stroke="#ffb264" stroke-width="1" opacity=".3"/><path d="m256 66 25 115 91-77-43 111 121 7-111 43 77 91-111-43-7 121-43-111-91 77 43-111-121-7 111-43-77-91 111 43Z" fill="#ffad59" opacity=".18"/><path d="M260 126c18 62-42 82-12 137 13 24 38 24 45 51 8 31-14 58-43 58-40 0-62-37-47-73 11-27 30-42 27-69-3-26-22-44-11-81 4 27 18 33 26 46 14-21 19-43 15-69Z" fill="url(#f)"/><path d="M256 265c13 21-8 32 1 47 4 7 14 11 14 22a17 17 0 0 1-34 0c0-14 15-21 12-35-2-12-12-17-8-34 3 10 8 12 15 19Z" fill="#fff1b5"/><circle cx="101" cy="197" r="5" fill="#ffce70"/><circle cx="403" cy="324" r="4" fill="#ffce70"/><path d="M91 389h52m276-269h-39" stroke="#ffb264" stroke-width="3" stroke-linecap="round" opacity=".55"/>
</svg>
