<svg xmlns="http://www.w3.org/2000/svg" viewBox="0 0 512 512">
<defs><linearGradient id="b" x2=".9" y2="1"><stop stop-color="#202b48"/><stop offset="1" stop-color="#11151f"/></linearGradient></defs>
<rect width="512" height="512" rx="28" fill="url(#b)"/><circle cx="337" cy="160" r="77" fill="#d4d6dc"/><circle cx="373" cy="131" r="73" fill="#202b48"/><path d="M58 279c79-44 150-42 216 4 57 40 112 43 180 6" fill="none" stroke="#687da7" stroke-width="3" opacity=".5"/><path d="M38 321c90-42 167-38 230 8 61 44 124 47 206 5" fill="none" stroke="#9bb4d2" stroke-width="2" opacity=".48"/><path d="M0 380c83-36 158-32 222 9 73 47 159 45 290-14v137H0Z" fill="#263650"/><path d="M0 421c97-31 172-24 236 20 73 49 162 42 276-10v81H0Z" fill="#344961"/><path d="m117 151 4 12 12 4-12 4-4 12-4-12-12-4 12-4Zm89 67 3 9 9 3-9 3-3 9-3-9-9-3 9-3Zm204 12 3 10 10 3-10 3-3 10-3-10-10-3 10-3Z" fill="#e2e3dc" opacity=".72"/><circle cx="118" cy="274" r="3" fill="#d4dbe6"/><circle cx="442" cy="300" r="2" fill="#d4dbe6"/>
</svg>
